<svg width="920" height="950" viewBox="0 0 920 950" fill="none" xmlns="http://www.w3.org/2000/svg">
<g filter="url(#filter0_i_4_3)">
<path d="M2.87497 821.5C2.87498 797 -1.12506 791 2.87497 665C6.87499 539 106.875 498.421 155.875 477.5C204.875 456.579 277.375 462 422.875 453C568.375 444 611.375 422.926 718.375 387C825.375 351.074 914.375 236.5 917.875 207C921.375 177.5 916.875 795 916.875 818C916.875 841 890.875 944.71 781.375 948C671.875 951.29 139.375 947.5 139.375 947.5C29.875 947.5 2.87495 846 2.87497 821.5Z" fill="#4D5629"/>
<path d="M51.875 515.5C21.875 546.5 0.374981 590.5 0.37499 611C0.374998 631.5 -1.125 229 1.875 127.5C4.875 26 103.375 -6.10352e-05 127.375 0C151.375 6.10354e-05 797.875 2 797.875 2C817.375 2 902.875 25 916.875 113C916.875 113 918.375 156.5 918.375 177C918.375 197.5 871.375 265 868.875 267C866.375 269 873.375 145.5 866.375 120.5C859.375 95.5 826.375 52 784.375 52C742.375 52 155.875 51 131.875 52C107.875 53 50.375 81.5 50.375 138C50.375 194.5 51.875 515.5 51.875 515.5Z" fill="#4C5528"/>
<path d="M342.375 332C331.375 332 331.875 314 342.375 314C352.875 314 593.375 315 603.875 315C614.375 315 616.375 332 603.875 332H342.375Z" fill="#4D5629"/>
<path d="M342.694 383.5C331.346 383.5 331.862 365.5 342.694 365.5C353.525 365.5 601.629 366.5 612.461 366.5C623.292 366.5 625.356 383.5 612.461 383.5H342.694Z" fill="#4D5629"/>
<path d="M339.476 278.5C332.517 278.5 332.834 260.5 339.476 260.5C346.119 260.5 498.266 261.5 504.908 261.5C511.551 261.5 512.816 278.5 504.908 278.5H339.476Z" fill="#4D5629"/>
<path d="M147.375 373V456.5C147.375 450.5 222.375 441.5 222.375 441.5V339.5C222.375 339.5 185.375 338.5 173.375 340.5C161.375 342.5 147.375 352.5 147.375 373Z" fill="#4D5629"/>
</g>
<g filter="url(#filter1_i_4_3)">
<path d="M257.375 440.5C256.375 439.5 223.875 442 223.875 442C223.875 442 224.375 161 224.375 145C224.375 129 242.375 118 252.375 118H567.875C573.375 118 575.875 120 579.375 123.5C582.875 127 701.375 246.5 704.875 249.5C708.375 252.5 710.875 259 710.875 265V373.5L676.875 385.5C676.875 385.5 677.875 277.5 676.875 272C675.875 266.5 671.375 262 667.375 261.5C663.375 261 579.875 263 575.375 261.5C570.875 260 565.375 255.5 565.375 249.5C565.375 243.5 565.875 161.5 564.875 157.5C563.875 153.5 560.375 151.5 555.875 151.5H269.875C266.375 151.5 257.375 156 257.375 163.5C257.375 171 258.375 441.5 257.375 440.5Z" fill="#EEB51E" stroke="#EDB41D"/>
<path d="M565.875 248.5C565.375 239.501 564.875 157 564.875 157C564.875 157 659.875 260.001 667.875 261.5C675.875 263 586.375 261 579.875 261C573.375 261 566.375 257.5 565.875 248.5Z" fill="#B57F01" stroke="#EDB41D"/>
</g>
<g filter="url(#filter2_d_4_3)">
<rect x="153.375" y="796.5" width="610" height="100" rx="30" stroke="#EDB41D" stroke-width="8" shape-rendering="crispEdges"/>
</g>
<g filter="url(#filter3_d_4_3)">
<mask id="path-10-outside-1_4_3" maskUnits="userSpaceOnUse" x="236.375" y="821.5" width="443" height="51" fill="black">
<rect fill="white" x="236.375" y="821.5" width="443" height="51"/>
<path d="M267.446 871.5L264.41 859.908H251.231L248.264 871.5H237.776L250.817 823.338H265.445L278.486 871.5H267.446ZM258.131 833.343H257.579L252.887 851.559H262.823L258.131 833.343ZM347.873 850.041L348.425 836.586H347.804L338.834 861.357L329.864 836.586H329.243L329.795 850.041V871.5H320.825V823.338H333.038L338.972 839.553H339.524L345.458 823.338H356.843V871.5H347.873V850.041ZM428.852 871.5L425.816 859.908H412.637L409.67 871.5H399.182L412.223 823.338H426.851L439.892 871.5H428.852ZM419.537 833.343H418.985L414.293 851.559H424.229L419.537 833.343ZM493.34 839.484H492.581V871.5H483.749V823.338H496.169L507.14 855.354H507.899V823.338H516.731V871.5H504.311L493.34 839.484ZM590.258 871.5L587.222 859.908H574.043L571.076 871.5H560.588L573.629 823.338H588.257L601.298 871.5H590.258ZM580.943 833.343H580.391L575.699 851.559H585.635L580.943 833.343ZM667.718 851.352H655.574V871.5H645.155V823.338H655.574V842.865H667.718V823.338H678.137V871.5H667.718V851.352Z"/>
</mask>
<path d="M267.446 871.5L264.41 859.908H251.231L248.264 871.5H237.776L250.817 823.338H265.445L278.486 871.5H267.446ZM258.131 833.343H257.579L252.887 851.559H262.823L258.131 833.343ZM347.873 850.041L348.425 836.586H347.804L338.834 861.357L329.864 836.586H329.243L329.795 850.041V871.5H320.825V823.338H333.038L338.972 839.553H339.524L345.458 823.338H356.843V871.5H347.873V850.041ZM428.852 871.5L425.816 859.908H412.637L409.67 871.5H399.182L412.223 823.338H426.851L439.892 871.5H428.852ZM419.537 833.343H418.985L414.293 851.559H424.229L419.537 833.343ZM493.34 839.484H492.581V871.5H483.749V823.338H496.169L507.14 855.354H507.899V823.338H516.731V871.5H504.311L493.34 839.484ZM590.258 871.5L587.222 859.908H574.043L571.076 871.5H560.588L573.629 823.338H588.257L601.298 871.5H590.258ZM580.943 833.343H580.391L575.699 851.559H585.635L580.943 833.343ZM667.718 851.352H655.574V871.5H645.155V823.338H655.574V842.865H667.718V823.338H678.137V871.5H667.718V851.352Z" fill="#EAB81D"/>
<path d="M267.446 871.5L266.478 871.753L266.674 872.5H267.446V871.5ZM264.41 859.908L265.377 859.655L265.182 858.908H264.41V859.908ZM251.231 859.908V858.908H250.455L250.262 859.66L251.231 859.908ZM248.264 871.5V872.5H249.04L249.233 871.748L248.264 871.5ZM237.776 871.5L236.811 871.239L236.469 872.5H237.776V871.5ZM250.817 823.338V822.338H250.052L249.852 823.077L250.817 823.338ZM265.445 823.338L266.41 823.077L266.21 822.338H265.445V823.338ZM278.486 871.5V872.5H279.793L279.451 871.239L278.486 871.5ZM258.131 833.343L259.099 833.094L258.906 832.343H258.131V833.343ZM257.579 833.343V832.343H256.804L256.61 833.094L257.579 833.343ZM252.887 851.559L251.918 851.31L251.597 852.559H252.887V851.559ZM262.823 851.559V852.559H264.113L263.791 851.31L262.823 851.559ZM267.446 871.5L268.413 871.247L265.377 859.655L264.41 859.908L263.442 860.161L266.478 871.753L267.446 871.5ZM264.41 859.908V858.908H251.231V859.908V860.908H264.41V859.908ZM251.231 859.908L250.262 859.66L247.295 871.252L248.264 871.5L249.233 871.748L252.2 860.156L251.231 859.908ZM248.264 871.5V870.5H237.776V871.5V872.5H248.264V871.5ZM237.776 871.5L238.741 871.761L251.782 823.599L250.817 823.338L249.852 823.077L236.811 871.239L237.776 871.5ZM250.817 823.338V824.338H265.445V823.338V822.338H250.817V823.338ZM265.445 823.338L264.48 823.599L277.521 871.761L278.486 871.5L279.451 871.239L266.41 823.077L265.445 823.338ZM278.486 871.5V870.5H267.446V871.5V872.5H278.486V871.5ZM258.131 833.343V832.343H257.579V833.343V834.343H258.131V833.343ZM257.579 833.343L256.61 833.094L251.918 851.31L252.887 851.559L253.855 851.808L258.547 833.592L257.579 833.343ZM252.887 851.559V852.559H262.823V851.559V850.559H252.887V851.559ZM262.823 851.559L263.791 851.31L259.099 833.094L258.131 833.343L257.162 833.592L261.854 851.808L262.823 851.559ZM347.873 850.041L346.874 850L346.873 850.02V850.041H347.873ZM348.425 836.586L349.424 836.627L349.467 835.586H348.425V836.586ZM347.804 836.586V835.586H347.102L346.864 836.245L347.804 836.586ZM338.834 861.357L337.894 861.697L338.834 864.294L339.774 861.697L338.834 861.357ZM329.864 836.586L330.804 836.245L330.565 835.586H329.864V836.586ZM329.243 836.586V835.586H328.201L328.244 836.627L329.243 836.586ZM329.795 850.041H330.795V850.02L330.794 850L329.795 850.041ZM329.795 871.5V872.5H330.795V871.5H329.795ZM320.825 871.5H319.825V872.5H320.825V871.5ZM320.825 823.338V822.338H319.825V823.338H320.825ZM333.038 823.338L333.977 822.994L333.737 822.338H333.038V823.338ZM338.972 839.553L338.033 839.897L338.273 840.553H338.972V839.553ZM339.524 839.553V840.553H340.223L340.463 839.897L339.524 839.553ZM345.458 823.338V822.338H344.759L344.519 822.994L345.458 823.338ZM356.843 823.338H357.843V822.338H356.843V823.338ZM356.843 871.5V872.5H357.843V871.5H356.843ZM347.873 871.5H346.873V872.5H347.873V871.5ZM347.873 850.041L348.872 850.082L349.424 836.627L348.425 836.586L347.426 836.545L346.874 850L347.873 850.041ZM348.425 836.586V835.586H347.804V836.586V837.586H348.425V836.586ZM347.804 836.586L346.864 836.245L337.894 861.016L338.834 861.357L339.774 861.697L348.744 836.926L347.804 836.586ZM338.834 861.357L339.774 861.016L330.804 836.245L329.864 836.586L328.924 836.926L337.894 861.697L338.834 861.357ZM329.864 836.586V835.586H329.243V836.586V837.586H329.864V836.586ZM329.243 836.586L328.244 836.627L328.796 850.082L329.795 850.041L330.794 850L330.242 836.545L329.243 836.586ZM329.795 850.041H328.795V871.5H329.795H330.795V850.041H329.795ZM329.795 871.5V870.5H320.825V871.5V872.5H329.795V871.5ZM320.825 871.5H321.825V823.338H320.825H319.825V871.5H320.825ZM320.825 823.338V824.338H333.038V823.338V822.338H320.825V823.338ZM333.038 823.338L332.099 823.682L338.033 839.897L338.972 839.553L339.911 839.209L333.977 822.994L333.038 823.338ZM338.972 839.553V840.553H339.524V839.553V838.553H338.972V839.553ZM339.524 839.553L340.463 839.897L346.397 823.682L345.458 823.338L344.519 822.994L338.585 839.209L339.524 839.553ZM345.458 823.338V824.338H356.843V823.338V822.338H345.458V823.338ZM356.843 823.338H355.843V871.5H356.843H357.843V823.338H356.843ZM356.843 871.5V870.5H347.873V871.5V872.5H356.843V871.5ZM347.873 871.5H348.873V850.041H347.873H346.873V871.5H347.873ZM428.852 871.5L427.885 871.753L428.08 872.5H428.852V871.5ZM425.816 859.908L426.783 859.655L426.588 858.908H425.816V859.908ZM412.637 859.908V858.908H411.861L411.668 859.66L412.637 859.908ZM409.67 871.5V872.5H410.446L410.639 871.748L409.67 871.5ZM399.182 871.5L398.217 871.239L397.875 872.5H399.182V871.5ZM412.223 823.338V822.338H411.458L411.258 823.077L412.223 823.338ZM426.851 823.338L427.816 823.077L427.616 822.338H426.851V823.338ZM439.892 871.5V872.5H441.199L440.857 871.239L439.892 871.5ZM419.537 833.343L420.505 833.094L420.312 832.343H419.537V833.343ZM418.985 833.343V832.343H418.21L418.017 833.094L418.985 833.343ZM414.293 851.559L413.325 851.31L413.003 852.559H414.293V851.559ZM424.229 851.559V852.559H425.519L425.197 851.31L424.229 851.559ZM428.852 871.5L429.819 871.247L426.783 859.655L425.816 859.908L424.849 860.161L427.885 871.753L428.852 871.5ZM425.816 859.908V858.908H412.637V859.908V860.908H425.816V859.908ZM412.637 859.908L411.668 859.66L408.701 871.252L409.67 871.5L410.639 871.748L413.606 860.156L412.637 859.908ZM409.67 871.5V870.5H399.182V871.5V872.5H409.67V871.5ZM399.182 871.5L400.147 871.761L413.188 823.599L412.223 823.338L411.258 823.077L398.217 871.239L399.182 871.5ZM412.223 823.338V824.338H426.851V823.338V822.338H412.223V823.338ZM426.851 823.338L425.886 823.599L438.927 871.761L439.892 871.5L440.857 871.239L427.816 823.077L426.851 823.338ZM439.892 871.5V870.5H428.852V871.5V872.5H439.892V871.5ZM419.537 833.343V832.343H418.985V833.343V834.343H419.537V833.343ZM418.985 833.343L418.017 833.094L413.325 851.31L414.293 851.559L415.261 851.808L419.953 833.592L418.985 833.343ZM414.293 851.559V852.559H424.229V851.559V850.559H414.293V851.559ZM424.229 851.559L425.197 851.31L420.505 833.094L419.537 833.343L418.569 833.592L423.261 851.808L424.229 851.559ZM493.34 839.484L494.286 839.16L494.054 838.484H493.34V839.484ZM492.581 839.484V838.484H491.581V839.484H492.581ZM492.581 871.5V872.5H493.581V871.5H492.581ZM483.749 871.5H482.749V872.5H483.749V871.5ZM483.749 823.338V822.338H482.749V823.338H483.749ZM496.169 823.338L497.115 823.014L496.883 822.338H496.169V823.338ZM507.14 855.354L506.194 855.678L506.426 856.354H507.14V855.354ZM507.899 855.354V856.354H508.899V855.354H507.899ZM507.899 823.338V822.338H506.899V823.338H507.899ZM516.731 823.338H517.731V822.338H516.731V823.338ZM516.731 871.5V872.5H517.731V871.5H516.731ZM504.311 871.5L503.365 871.824L503.597 872.5H504.311V871.5ZM493.34 839.484V838.484H492.581V839.484V840.484H493.34V839.484ZM492.581 839.484H491.581V871.5H492.581H493.581V839.484H492.581ZM492.581 871.5V870.5H483.749V871.5V872.5H492.581V871.5ZM483.749 871.5H484.749V823.338H483.749H482.749V871.5H483.749ZM483.749 823.338V824.338H496.169V823.338V822.338H483.749V823.338ZM496.169 823.338L495.223 823.662L506.194 855.678L507.14 855.354L508.086 855.03L497.115 823.014L496.169 823.338ZM507.14 855.354V856.354H507.899V855.354V854.354H507.14V855.354ZM507.899 855.354H508.899V823.338H507.899H506.899V855.354H507.899ZM507.899 823.338V824.338H516.731V823.338V822.338H507.899V823.338ZM516.731 823.338H515.731V871.5H516.731H517.731V823.338H516.731ZM516.731 871.5V870.5H504.311V871.5V872.5H516.731V871.5ZM504.311 871.5L505.257 871.176L494.286 839.16L493.34 839.484L492.394 839.808L503.365 871.824L504.311 871.5ZM590.258 871.5L589.291 871.753L589.486 872.5H590.258V871.5ZM587.222 859.908L588.189 859.655L587.994 858.908H587.222V859.908ZM574.043 859.908V858.908H573.267L573.074 859.66L574.043 859.908ZM571.076 871.5V872.5H571.852L572.045 871.748L571.076 871.5ZM560.588 871.5L559.623 871.239L559.281 872.5H560.588V871.5ZM573.629 823.338V822.338H572.864L572.664 823.077L573.629 823.338ZM588.257 823.338L589.222 823.077L589.022 822.338H588.257V823.338ZM601.298 871.5V872.5H602.605L602.263 871.239L601.298 871.5ZM580.943 833.343L581.911 833.094L581.718 832.343H580.943V833.343ZM580.391 833.343V832.343H579.616L579.423 833.094L580.391 833.343ZM575.699 851.559L574.731 851.31L574.409 852.559H575.699V851.559ZM585.635 851.559V852.559H586.925L586.603 851.31L585.635 851.559ZM590.258 871.5L591.225 871.247L588.189 859.655L587.222 859.908L586.255 860.161L589.291 871.753L590.258 871.5ZM587.222 859.908V858.908H574.043V859.908V860.908H587.222V859.908ZM574.043 859.908L573.074 859.66L570.107 871.252L571.076 871.5L572.045 871.748L575.012 860.156L574.043 859.908ZM571.076 871.5V870.5H560.588V871.5V872.5H571.076V871.5ZM560.588 871.5L561.553 871.761L574.594 823.599L573.629 823.338L572.664 823.077L559.623 871.239L560.588 871.5ZM573.629 823.338V824.338H588.257V823.338V822.338H573.629V823.338ZM588.257 823.338L587.292 823.599L600.333 871.761L601.298 871.5L602.263 871.239L589.222 823.077L588.257 823.338ZM601.298 871.5V870.5H590.258V871.5V872.5H601.298V871.5ZM580.943 833.343V832.343H580.391V833.343V834.343H580.943V833.343ZM580.391 833.343L579.423 833.094L574.731 851.31L575.699 851.559L576.667 851.808L581.359 833.592L580.391 833.343ZM575.699 851.559V852.559H585.635V851.559V850.559H575.699V851.559ZM585.635 851.559L586.603 851.31L581.911 833.094L580.943 833.343L579.975 833.592L584.667 851.808L585.635 851.559ZM667.718 851.352H668.718V850.352H667.718V851.352ZM655.574 851.352V850.352H654.574V851.352H655.574ZM655.574 871.5V872.5H656.574V871.5H655.574ZM645.155 871.5H644.155V872.5H645.155V871.5ZM645.155 823.338V822.338H644.155V823.338H645.155ZM655.574 823.338H656.574V822.338H655.574V823.338ZM655.574 842.865H654.574V843.865H655.574V842.865ZM667.718 842.865V843.865H668.718V842.865H667.718ZM667.718 823.338V822.338H666.718V823.338H667.718ZM678.137 823.338H679.137V822.338H678.137V823.338ZM678.137 871.5V872.5H679.137V871.5H678.137ZM667.718 871.5H666.718V872.5H667.718V871.5ZM667.718 851.352V850.352H655.574V851.352V852.352H667.718V851.352ZM655.574 851.352H654.574V871.5H655.574H656.574V851.352H655.574ZM655.574 871.5V870.5H645.155V871.5V872.5H655.574V871.5ZM645.155 871.5H646.155V823.338H645.155H644.155V871.5H645.155ZM645.155 823.338V824.338H655.574V823.338V822.338H645.155V823.338ZM655.574 823.338H654.574V842.865H655.574H656.574V823.338H655.574ZM655.574 842.865V843.865H667.718V842.865V841.865H655.574V842.865ZM667.718 842.865H668.718V823.338H667.718H666.718V842.865H667.718ZM667.718 823.338V824.338H678.137V823.338V822.338H667.718V823.338ZM678.137 823.338H677.137V871.5H678.137H679.137V823.338H678.137ZM678.137 871.5V870.5H667.718V871.5V872.5H678.137V871.5ZM667.718 871.5H668.718V851.352H667.718H666.718V871.5H667.718Z" fill="#EDB41D" mask="url(#path-10-outside-1_4_3)"/>
</g>
<g filter="url(#filter4_dii_4_3)">
<path d="M718.376 762.501C718.376 762.501 718.376 559 718.376 551C718.376 543 754.376 517.501 755.376 518.5C756.376 519.5 755.376 691.001 755.376 721.501C755.376 752 718.376 762.501 718.376 762.501Z" fill="#EEB51E"/>
<path d="M756.376 495.5C749.876 499.5 704.876 518.5 704.876 518.5C704.876 515.376 703.876 514.5 704.876 510.5C705.77 506.922 716.266 496.543 718.829 495.466C716.756 494.201 709.624 487.408 708.376 482C706.876 475.5 709.876 455 725.376 448.5C740.876 442 755.376 450.5 753.376 456C751.376 461.5 746.876 469.5 744.876 467.5C742.876 465.5 744.876 466 739.376 463.5C733.876 461 727.376 463.039 725.376 468.5C723.376 473.961 724.598 479.274 729.876 483C729.876 483 737.876 486 744.376 484.5C750.876 483 753.518 480.538 759.376 478C759.376 478 762.876 491.5 756.376 495.5Z" fill="#EEB51E"/>
<path d="M250.875 578.5L228.875 557L204.875 578.5L180.875 554L206.375 528L228.875 551.5L251.875 528L275.875 554L250.875 578.5Z" fill="#EEB51E"/>
<path d="M392.875 552L369.875 577.5L394.375 603L417.875 577.5L392.875 552Z" fill="#EEB51E"/>
<path fill-rule="evenodd" clip-rule="evenodd" d="M417.875 618C415.875 619 388.375 649 389.875 651.5C391.375 654 406.875 690 406.875 701C406.875 712 398.375 712 398.375 712C398.375 712 314.875 715 297.875 713.5C280.875 712 277.875 702 275.875 694.5C273.875 687 273.375 584.5 273.375 584.5L239.375 607V613.5C239.375 613.5 215.213 622.17 209.875 624C192.375 630 132.429 681 159.875 725C180.416 757.93 220.699 733.167 238.563 722.187C244.567 718.495 248.039 716.361 247.375 718.5C244.737 727 268.875 760.5 280.875 760.5C283.297 760.5 288.633 760.622 295.715 760.784C323.713 761.426 378.999 762.692 389.375 759.5C402.375 755.5 417.875 749.5 424.875 728C429.415 714.056 430.501 709.354 431.717 704.096C432.375 701.247 433.071 698.235 434.375 693.5C434.375 693.5 436.375 680.5 434.375 662C432.375 643.5 419.875 617 417.875 618ZM241.375 689.5C241.875 685 239.875 651 239.375 645C238.875 639 192.375 661.5 188.375 675C184.375 688.5 191.875 692.954 203.375 694.5C214.875 696.046 240.875 694 241.375 689.5Z" fill="#EEB51E"/>
<path fill-rule="evenodd" clip-rule="evenodd" d="M458.375 534.5L497.875 503C497.875 503 493.375 668.5 499.875 698C506.375 727.5 564.375 712.5 569.375 696.5C574.375 680.5 589.875 657 600.875 640C611.875 623 645.876 599.5 667.876 640C689.876 680.5 685.876 697.5 677.876 726C669.876 754.5 658.875 762.501 634.375 762.501C609.875 762.501 575.375 731.5 575.375 731.5C575.375 731.5 554.375 756 548.875 759.5C543.375 763 505.875 764.5 494.875 759.5C483.875 754.5 465.375 741 465.375 717C465.375 693 458.375 534.5 458.375 534.5ZM623.375 662.5C608.554 669.354 598.875 685.5 597.375 692C595.875 698.5 647.875 729.5 654.375 714.5C660.875 699.5 638.196 655.646 623.375 662.5Z" fill="#EEB51E"/>
</g>
<defs>
<filter id="filter0_i_4_3" x="0" y="0" width="919.208" height="953.343" filterUnits="userSpaceOnUse" color-interpolation-filters="sRGB">
<feFlood flood-opacity="0" result="BackgroundImageFix"/>
<feBlend mode="normal" in="SourceGraphic" in2="BackgroundImageFix" result="shape"/>
<feColorMatrix in="SourceAlpha" type="matrix" values="0 0 0 0 0 0 0 0 0 0 0 0 0 0 0 0 0 0 127 0" result="hardAlpha"/>
<feOffset dy="4"/>
<feGaussianBlur stdDeviation="8.5"/>
<feComposite in2="hardAlpha" operator="arithmetic" k2="-1" k3="1"/>
<feColorMatrix type="matrix" values="0 0 0 0 0 0 0 0 0 0 0 0 0 0 0 0 0 0 0.33 0"/>
<feBlend mode="normal" in2="shape" result="effect1_innerShadow_4_3"/>
</filter>
<filter id="filter1_i_4_3" x="223.374" y="117.5" width="488.001" height="329.04" filterUnits="userSpaceOnUse" color-interpolation-filters="sRGB">
<feFlood flood-opacity="0" result="BackgroundImageFix"/>
<feBlend mode="normal" in="SourceGraphic" in2="BackgroundImageFix" result="shape"/>
<feColorMatrix in="SourceAlpha" type="matrix" values="0 0 0 0 0 0 0 0 0 0 0 0 0 0 0 0 0 0 127 0" result="hardAlpha"/>
<feOffset dy="4"/>
<feGaussianBlur stdDeviation="9"/>
<feComposite in2="hardAlpha" operator="arithmetic" k2="-1" k3="1"/>
<feColorMatrix type="matrix" values="0 0 0 0 0 0 0 0 0 0 0 0 0 0 0 0 0 0 0.41 0"/>
<feBlend mode="normal" in2="shape" result="effect1_innerShadow_4_3"/>
</filter>
<filter id="filter2_d_4_3" x="124.375" y="773.5" width="668" height="158" filterUnits="userSpaceOnUse" color-interpolation-filters="sRGB">
<feFlood flood-opacity="0" result="BackgroundImageFix"/>
<feColorMatrix in="SourceAlpha" type="matrix" values="0 0 0 0 0 0 0 0 0 0 0 0 0 0 0 0 0 0 127 0" result="hardAlpha"/>
<feOffset dy="6"/>
<feGaussianBlur stdDeviation="12.5"/>
<feComposite in2="hardAlpha" operator="out"/>
<feColorMatrix type="matrix" values="0 0 0 0 0 0 0 0 0 0 0 0 0 0 0 0 0 0 0.74 0"/>
<feBlend mode="normal" in2="BackgroundImageFix" result="effect1_dropShadow_4_3"/>
<feBlend mode="normal" in="SourceGraphic" in2="effect1_dropShadow_4_3" result="shape"/>
</filter>
<filter id="filter3_d_4_3" x="214.469" y="808.338" width="486.668" height="94.162" filterUnits="userSpaceOnUse" color-interpolation-filters="sRGB">
<feFlood flood-opacity="0" result="BackgroundImageFix"/>
<feColorMatrix in="SourceAlpha" type="matrix" values="0 0 0 0 0 0 0 0 0 0 0 0 0 0 0 0 0 0 127 0" result="hardAlpha"/>
<feOffset dy="8"/>
<feGaussianBlur stdDeviation="11"/>
<feComposite in2="hardAlpha" operator="out"/>
<feColorMatrix type="matrix" values="0 0 0 0 0 0 0 0 0 0 0 0 0 0 0 0 0 0 0.63 0"/>
<feBlend mode="normal" in2="BackgroundImageFix" result="effect1_dropShadow_4_3"/>
<feBlend mode="normal" in="SourceGraphic" in2="effect1_dropShadow_4_3" result="shape"/>
</filter>
<filter id="filter4_dii_4_3" x="125.791" y="422.155" width="661.526" height="370.557" filterUnits="userSpaceOnUse" color-interpolation-filters="sRGB">
<feFlood flood-opacity="0" result="BackgroundImageFix"/>
<feColorMatrix in="SourceAlpha" type="matrix" values="0 0 0 0 0 0 0 0 0 0 0 0 0 0 0 0 0 0 127 0" result="hardAlpha"/>
<feOffset dy="3"/>
<feGaussianBlur stdDeviation="13.5"/>
<feComposite in2="hardAlpha" operator="out"/>
<feColorMatrix type="matrix" values="0 0 0 0 0 0 0 0 0 0 0 0 0 0 0 0 0 0 0.5 0"/>
<feBlend mode="normal" in2="BackgroundImageFix" result="effect1_dropShadow_4_3"/>
<feBlend mode="normal" in="SourceGraphic" in2="effect1_dropShadow_4_3" result="shape"/>
<feColorMatrix in="SourceAlpha" type="matrix" values="0 0 0 0 0 0 0 0 0 0 0 0 0 0 0 0 0 0 127 0" result="hardAlpha"/>
<feOffset dy="4"/>
<feGaussianBlur stdDeviation="9.5"/>
<feComposite in2="hardAlpha" operator="arithmetic" k2="-1" k3="1"/>
<feColorMatrix type="matrix" values="0 0 0 0 0 0 0 0 0 0 0 0 0 0 0 0 0 0 0.37 0"/>
<feBlend mode="normal" in2="shape" result="effect2_innerShadow_4_3"/>
<feColorMatrix in="SourceAlpha" type="matrix" values="0 0 0 0 0 0 0 0 0 0 0 0 0 0 0 0 0 0 127 0" result="hardAlpha"/>
<feOffset dy="4"/>
<feGaussianBlur stdDeviation="2"/>
<feComposite in2="hardAlpha" operator="arithmetic" k2="-1" k3="1"/>
<feColorMatrix type="matrix" values="0 0 0 0 0 0 0 0 0 0 0 0 0 0 0 0 0 0 0.32 0"/>
<feBlend mode="normal" in2="effect2_innerShadow_4_3" result="effect3_innerShadow_4_3"/>
</filter>
</defs>
</svg>
